<!--?xml version="1.0" encoding="utf-8"?-->
<!-- Generator: Adobe Illustrator 18.1.1, SVG Export Plug-In . SVG Version: 6.00 Build 0)  -->

<svg version="1.1" id="_x32_" xmlns="http://www.w3.org/2000/svg" xmlns:xlink="http://www.w3.org/1999/xlink" x="0px" y="0px" viewBox="0 0 512 512" style="width: 256px; height: 256px; opacity: 1;" xml:space="preserve">
<style type="text/css">
	.st0{fill:#4B4B4B;}
</style>
<g>
	<path class="st0" d="M473.472,40.656l-33.761-2.545c-7.26-13.066-21.779-21.269-37.532-19.674l-34.916,3.488
		c-8.422-15.391-26.572-23.524-44.14-18.589l-38.263,10.819C273.828,0.648,254.736-4.066,238.323,3.846L121.372,60.251
		l-48.21,23.233L24.67,106.866c-19.092,9.216-27.154,32.229-17.93,51.322l160.077,331.994c9.294,19.163,32.236,27.224,51.399,18.001
		l61.489-29.692l31.946-3.19l128.79,9.578c21.198,1.595,39.638-14.3,41.162-35.427L508.97,81.888
		C510.566,60.69,494.67,42.25,473.472,40.656z M450.962,384.553l1.454,5.296c2.907,10.378-3.19,21.198-13.576,24.175l-61.269,17.277
		l54.3-26.21C440.945,400.738,447.553,393.259,450.962,384.553z M443.993,432.173c7.338-2.105,13.577-6.168,18.299-11.47
		l0.071,0.801c1.092,10.741-6.75,20.326-17.568,21.41l-60.545,6.105L443.993,432.173z M376.84,52.339l-3.41-12.052l30.564-3.049
		c10.818-1.084,20.404,6.757,21.488,17.498l0.15,1.234l26.423,263.097L376.84,52.339z M304.392,28.312l0.652-0.22l23.162-6.529
		c5.806-1.602,11.755-0.44,16.334,2.679c2.68,1.815,4.935,4.289,6.459,7.26c0.582,1.092,1.014,2.325,1.375,3.559l2.035,7.189
		l2.396,8.635l74.774,265.132L302.137,47.475l-0.362-0.723l-7.55-15.612L304.392,28.312z M210.014,491.124
		c-9.728,4.714-21.418,0.652-26.14-9.075l-3.34-6.898l-11.974-24.899l-14.016-29.039L23.727,149.984
		c-4.644-9.727-0.582-21.418,9.146-26.132l33.98-16.412l20.177-9.649l41.02-19.823l3.701-1.815l68.535-33.031l11.471-5.516
		l14.229-6.898l15.313-7.33l5.232-2.545c5.226-2.468,10.961-2.468,15.966-0.362c2.688,1.092,5.154,2.758,7.118,5.005
		c1.234,1.312,2.248,2.836,3.049,4.502l0.652,1.383l2.396,5.005l4.282,8.792l2.105,4.353l150.712,312.462
		c4.65,9.727,0.581,21.418-9.146,26.132l-137.716,66.43l-11.542,5.516l-1.454,0.73l-20.978,10.088l-27.302,13.215L210.014,491.124z
		 M441.817,466.076l-22.141-1.666l27.005-2.687c4.43-0.44,8.571-1.603,12.343-3.418C455.103,463.46,448.786,466.587,441.817,466.076
		z M471.799,326.758L444.724,57.422l27.366,2.035c10.747,0.794,18.88,10.238,18.078,20.978L471.799,326.758z" style="fill: rgb(75, 75, 75);"></path>
	<path class="st0" d="M247.384,281.341c13.924,4.445,31.059-2.95,36.88-16.236c8.706-19.886-6.253-39.262-25.608-49.06
		c-21.099-10.684-50.812-18.929-62.297-28.507c-0.752-0.617-1.128-0.716-1.382-0.588c-0.206,0.12-0.412,0.475-0.39,1.446
		c0.333,14.952-11.719,43.332-16.49,66.494c-4.382,21.248,1.46,45.019,22.431,50.592c14.03,3.722,30.479-5.083,35.682-18.759
		c6.302,15.228,11.045,30.478,12.47,44.536l25.778-12.428C264.342,308.956,255.366,295.754,247.384,281.341z" style="fill: rgb(75, 75, 75);"></path>
	<path class="st0" d="M93.404,151.338c-7.976-4.041-19.199-7.16-23.545-10.776l-0.518-0.235l-0.156,0.553
		c0.128,5.658-4.417,16.378-6.217,25.133c-1.666,8.026,0.546,17.016,8.465,19.114c5.303,1.411,11.521-1.921,13.484-7.082
		c2.382,5.749,4.176,11.521,4.722,16.83l9.741-4.693c-3.828-3.729-7.224-8.727-10.238-14.179c5.268,1.68,11.74-1.106,13.932-6.132
		C106.371,162.363,100.713,155.039,93.404,151.338z" style="fill: rgb(75, 75, 75);"></path>
	<path class="st0" d="M369.588,375.556c5.303,1.404,11.514-1.921,13.484-7.09c2.382,5.757,4.183,11.528,4.708,16.838l9.748-4.701
		c-3.829-3.722-7.21-8.72-10.231-14.172c5.261,1.68,11.734-1.12,13.931-6.133c3.289-7.514-2.361-14.824-9.678-18.532
		c-7.968-4.041-19.191-7.153-23.538-10.783l-0.518-0.22l-0.155,0.546c0.134,5.658-4.417,16.377-6.226,25.133
		C359.464,364.474,361.668,373.45,369.588,375.556z" style="fill: rgb(75, 75, 75);"></path>
</g>
</svg>
